:SAMPLES-PER-SECOND 30
:FRAME-RANGE 1-1390
:FULLY-SPECIFIED
:DEGREES
87
root  -35.8819 36.1134 -66.7558 -2.01913 42.7247 -3.4444
RightUpLeg  -21.0079 -7.86679 14.7444
RightLeg  42.0242 -3.00801 -3.20631
RightFoot  -23.6992 -0.731625 -5.27186
RightToes  -2.9104e-010 0 -3.6325e-017
Spine  28.6888 0.282627 -1.18653
Spine1  6.97771 -4.49851 4.14151
HEad  -29.3247 20.6615 -16.8952
LeftShoulder1  3.6743 -7.21375 -28.2332
LeftArm  76.7599 -41.7839 -92.8395
LeftForeArm  0.938365 -13.5918 -14.9512
LeftHand  -0.0881164 3.47852 4.41685
RightShoulder  17.0055 30.1227 43.781
RightArm  24.5406 22.481 19.9836
RightForeArm  24.1697 13.5695 11.4998
RightHand  0.39504 1.18844 6.87068
LeftUpLeg  -90.7877 21.1883 -60.375
LeftLeg  112.752 -1.5534 2.71052
LeftFoot  6.91753 2.44771 -15.4172
LeftToes  5.45371e-012 -1.3743e-010 1.09575e-010
88
root  -35.5922 36.5793 -65.8414 -2.37999 43.1217 -2.15939
RightUpLeg  -16.4976 -9.38645 13.8568
RightLeg  38.5915 -2.84117 -2.71465
RightFoot  -23.1302 -0.79799 -6.20635
RightToes  -2.9104e-010 0 -3.6325e-017
Spine  27.564 0.377537 -1.8634
Spine1  6.07981 -4.29321 3.19917
HEad  -29.7117 20.1095 -16.7201
LeftShoulder1  3.68234 -7.04758 -28.8646
LeftArm  77.059 -41.3096 -91.6979
LeftForeArm  0.931569 -13.9771 -14.6607
LeftHand  -0.083651 3.38863 3.96442
RightShoulder  16.8843 29.1571 44.8491
RightArm  25.9376 20.7233 20.8108
RightForeArm  21.7406 14.3347 10.9993
RightHand  0.426644 1.21135 7.39958
LeftUpLeg  -91.043 20.9498 -60.7841
LeftLeg  114.014 -2.31639 4.1108
LeftFoot  7.14363 1.74014 -10.9365
LeftToes  5.45371e-012 -1.3743e-010 1.09575e-010
89
root  -35.3364 37.3405 -64.8145 -1.98981 43.7664 -0.224736
RightUpLeg  -11.246 -10.1979 12.4825
RightLeg  33.0151 -3.02763 -2.37449
RightFoot  -20.9109 -0.650131 -6.07129
RightToes  -2.9104e-010 0 -3.6325e-017
Spine  26.0055 0.686834 -3.33963
Spine1  4.90048 -4.03185 2.33852
HEad  -27.9411 20.0202 -15.5913
LeftShoulder1  3.64369 -6.88867 -29.0296
LeftArm  77.3105 -39.9798 -90.5106
LeftForeArm  0.274416 -14.4191 -14.347
LeftHand  -0.073635 3.35233 3.3041
RightShoulder  16.7078 27.7709 46.4653
RightArm  26.9303 19.2552 21.4768
RightForeArm  21.5041 14.4776 10.9175
RightHand  0.461073 1.29345 7.89692
LeftUpLeg  -91.8364 20.6656 -62.3095
LeftLeg  116.172 -3.37174 5.68849
LeftFoot  7.50699 1.48375 -9.20127
LeftToes  5.45371e-012 -1.3743e-010 1.09575e-010
90
root  -35.0889 38.2938 -63.7588 -0.994329 44.8429 2.14027
RightUpLeg  -6.87973 -11.2985 10.5836
RightLeg  28.1201 -2.34853 -1.59927
RightFoot  -16.0473 -0.297799 -4.60614
RightToes  -2.9104e-010 0 -3.6325e-017
Spine  24.2474 0.964883 -5.38081
Spine1  3.63847 -3.97111 1.90551
HEad  -24.6386 20.3088 -14.2861
LeftShoulder1  3.60061 -6.77037 -29.0133
LeftArm  78.2085 -38.599 -89.5048
LeftForeArm  -0.424585 -14.9556 -13.9416
LeftHand  -0.0558615 3.48993 2.36928
RightShoulder  16.51 26.4636 48.003
RightArm  25.345 17.837 22.1302
RightForeArm  23.6449 13.5273 11.4518
RightHand  0.516493 1.49884 8.57172
LeftUpLeg  -92.411 20.3408 -64.47
LeftLeg  118.241 -4.45306 7.04516
LeftFoot  8.23622 1.72204 -10.2527
LeftToes  5.45371e-012 -1.3743e-010 1.09575e-010
91
root  -34.8026 39.2779 -62.823 -0.960312 46.1668 3.28212
RightUpLeg  -4.24514 -13.1281 8.97103
RightLeg  26.1607 -0.0673093 -0.267394
RightFoot  -8.80523 -0.0459002 -0.620944
RightToes  -2.9104e-010 0 -3.6325e-017
Spine  22.8988 1.03385 -6.53845
Spine1  2.94043 -4.03532 2.31463
HEad  -20.5991 20.8158 -13.3627
LeftShoulder1  3.59686 -6.80813 -28.845
LeftArm  76.6687 -37.5962 -89.2131
LeftForeArm  0.489748 -14.7228 -14.0887
LeftHand  -0.044751 3.43077 1.62211
RightShoulder  15.8756 25.3708 47.9329
RightArm  25.8768 16.7916 23.0169
RightForeArm  24.3716 13.3863 11.4945
RightHand  0.549083 1.59439 8.98443
LeftUpLeg  -92.6334 20.0687 -66.1724
LeftLeg  119.78 -5.54255 8.34558
LeftFoot  8.91036 1.99581 -11.4511
LeftToes  5.45371e-012 -1.3743e-010 1.09575e-010
92
root  -34.5121 40.1003 -62.0622 -2.05604 46.7926 3.11502
RightUpLeg  -4.09349 -14.9287 7.55448
RightLeg  28.4603 3.63026 1.8969
RightFoot  0.375278 -0.499569 4.88999
RightToes  -2.9104e-010 0 -3.6325e-017
Spine  22.5405 0.950642 -6.32214
Spine1  2.24858 -3.99956 2.59384
HEad  -17.1042 21.6322 -13.047
LeftShoulder1  3.57503 -6.88039 -28.3811
LeftArm  77.8038 -36.9669 -89.4407
LeftForeArm  -0.218129 -15.0651 -13.8379
LeftHand  -0.0385433 3.55022 1.27845
RightShoulder  15.3336 24.9035 47.0476
RightArm  28.2741 16.0995 23.8921
RightForeArm  23.3433 14.2664 10.8812
RightHand  0.595829 1.68968 9.61692
LeftUpLeg  -93.378 20.0668 -67.4505
LeftLeg  120.721 -6.11381 8.91025
LeftFoot  9.38652 2.14212 -11.9931
LeftToes  5.45371e-012 -1.3743e-010 1.09575e-010
93
root  -34.2431 40.4726 -61.439 -3.03576 46.506 3.0347
RightUpLeg  -6.45347 -11.5532 6.24773
RightLeg  34.5176 5.00012 3.43931
RightFoot  5.7927 -1.72972 11.7097
RightToes  -2.9104e-010 0 -3.6325e-017
Spine  22.5144 0.948064 -5.73846
Spine1  1.81578 -3.75622 2.48549
HEad  -14.4952 22.4574 -12.7795
LeftShoulder1  3.53683 -6.94929 -27.7723
LeftArm  79.3155 -36.6502 -89.5474
LeftForeArm  -2.26797 -15.4534 -13.6091
LeftHand  -0.0316611 3.38934 0.80378
RightShoulder  15.1516 25.1487 46.0512
RightArm  30.0097 16.3221 24.3169
RightForeArm  22.1868 14.7041 10.6802
RightHand  0.634892 1.67768 10.2723
LeftUpLeg  -94.9195 19.8883 -69.1214
LeftLeg  120.954 -6.60423 9.56349
LeftFoot  9.97517 2.64413 -14.3141
LeftToes  5.45371e-012 -1.3743e-010 1.09575e-010
94
root  -34.0103 40.6255 -60.7906 -4.13945 47.083 2.69419
RightUpLeg  -7.43425 -7.71812 5.41039
RightLeg  35.0128 -0.0832529 -0.319481
RightFoot  0.882653 -1.26246 11.8075
RightToes  -2.9104e-010 0 -3.6325e-017
Spine  22.5765 0.752429 -5.30349
Spine1  1.92637 -4.02348 3.22385
HEad  -13.5642 22.6396 -13.0697
LeftShoulder1  3.51907 -6.83623 -27.9759
LeftArm  80.1458 -36.783 -89.3655
LeftForeArm  -4.39378 -15.6895 -13.514
LeftHand  -0.0297822 3.45646 0.852125
RightShoulder  15.4228 25.7988 45.8088
RightArm  27.5894 17.2036 23.9266
RightForeArm  25.0441 13.5807 11.3415
RightHand  0.638675 1.61454 10.4334
LeftUpLeg  -95.2056 20.0146 -69.5245
LeftLeg  120.367 -6.13451 9.06408
LeftFoot  10.7681 3.15722 -16.4049
LeftToes  5.45371e-012 -1.3743e-010 1.09575e-010
95
root  -33.7519 40.6157 -60.1689 -5.75067 48.5237 1.47511
RightUpLeg  -6.8949 -3.93385 4.79191
RightLeg  29.2164 -6.01981 -3.87028
RightFoot  -5.6034 -0.362556 6.4653
RightToes  -2.9104e-010 0 -3.6325e-017
Spine  23.0978 -0.0585816 -3.41993
Spine1  1.74672 -4.5881 3.24604
HEad  -12.9463 22.1003 -13.0415
LeftShoulder1  3.55532 -6.83568 -28.338
LeftArm  79.27 -37.2366 -89.312
LeftForeArm  -3.33736 -15.4006 -13.7132
LeftHand  -0.0288371 3.46507 1.03529
RightShoulder  15.5625 25.9986 45.9094
RightArm  22.8495 18.3328 23.6068
RightForeArm  29.4309 11.5898 12.2871
RightHand  0.634233 1.70905 10.2131
LeftUpLeg  -94.101 20.4706 -68.2979
LeftLeg  119.092 -5.22292 8.05791
LeftFoot  10.22 3.36459 -17.8765
LeftToes  5.45371e-012 -1.3743e-010 1.09575e-010
96
root  -33.498 40.1068 -59.5824 -7.07773 49.3995 0.83034
RightUpLeg  -6.67123 0.488473 3.66779
RightLeg  25.4152 -13.123 -6.92977
RightFoot  -11.2303 -0.0795332 3.44772
RightToes  -2.9104e-010 0 -3.6325e-017
Spine  23.5264 -0.196901 -2.02019
Spine1  1.79332 -4.57633 3.68568
HEad  -12.775 20.9196 -13.378
LeftShoulder1  3.63868 -6.98163 -28.6629
LeftArm  79.7391 -38.043 -90.1868
LeftForeArm  -3.11519 -15.4454 -13.6618
LeftHand  -0.0313984 3.65774 1.26117
RightShoulder  15.3799 26.372 44.7401
RightArm  19.6933 18.6236 23.5766
RightForeArm  32.5088 10.5429 12.5934
RightHand  0.655404 1.97338 10.1533
LeftUpLeg  -93.4474 20.9475 -67.6187
LeftLeg  118.001 -4.64384 7.43874
LeftFoot  8.21241 2.91373 -17.0939
LeftToes  5.45371e-012 -1.3743e-010 1.09575e-010
